<svg aria-hidden="true" style="position:absolute;width:0;height:0;overflow:hidden" xmlns="http://www.w3.org/2000/svg">
  <defs>
    <symbol id="icon-edit" viewBox="0 0 32 32">
      <path stroke-linejoin="round" stroke-linecap="round" stroke-width="2.88" d="M3.835 24.154c.061-.551.092-.827.175-1.085a2.68 2.68 0 0 1 .311-.647c.149-.226.345-.422.737-.814L22.666 4a3.77 3.77 0 1 1 5.333 5.333L10.391 26.941c-.392.392-.588.588-.814.737a2.68 2.68 0 0 1-.647.311c-.258.084-.533.114-1.085.175l-4.513.501.501-4.512z"/>
    </symbol>
    <symbol id="icon-logo" viewBox="0 0 32 32">
      <path fill="#85aa9f" style="fill:var(--color1, #85aa9f)" d="M32 16c0 8.837-7.163 16-16 16S0 24.837 0 16 7.163 0 16 0s16 7.163 16 16z"/>
      <path fill="#fcfcfc" style="fill:var(--color2, #fcfcfc)" d="M16.354 15.2c-4.408-3.599-5.06-5.678 0-9.6 4.965 3.84 4.755 6.014 0 9.6zM15.2 16.446c-3.599 4.408-5.678 5.06-9.6 0 3.84-4.965 6.014-4.755 9.6 0zm12 0c-3.599 4.408-5.678 5.06-9.6 0 3.84-4.965 6.014-4.755 9.6 0zM16.354 27.2c-4.408-3.599-5.06-5.678 0-9.6 4.965 3.84 4.755 6.014 0 9.6z"/>
    </symbol>
    <symbol id="icon-trash" viewBox="0 0 32 32">
      <path stroke-linejoin="round" stroke-linecap="round" stroke-width="2.88" d="M12 4h8m-6.667 10v6.667M18.667 14v6.667M4 8h24m-2.667 0-.935 14.026c-.14 2.104-.21 3.156-.665 3.954a4.007 4.007 0 0 1-1.731 1.62c-.826.4-1.881.4-3.99.4h-4.025c-2.109 0-3.163 0-3.99-.4a3.996 3.996 0 0 1-1.731-1.62c-.455-.798-.525-1.85-.665-3.954L6.666 8"/>
    </symbol>
    <symbol id="icon-ukraine" viewBox="0 0 32 32">
      <path fill="#ffda44" style="fill:var(--color3, #ffda44)" d="M16 32c8.837 0 16-7.163 16-16S24.837 0 16 0 0 7.163 0 16s7.163 16 16 16z"/>
      <path fill="#338af3" style="fill:var(--color4, #338af3)" d="M0 16C0 7.164 7.163 0 16 0s16 7.163 16 16z"/>
    </symbol>
    <symbol id="icon-unitedKingdom" viewBox="0 0 32 32">
      <path fill="#f0f0f0" style="fill:var(--color5, #f0f0f0)" d="M16 32c8.837 0 16-7.163 16-16S24.837 0 16 0 0 7.163 0 16s7.163 16 16 16z"/>
      <path fill="#0052b4" style="fill:var(--color6, #0052b4)" d="M3.308 6.259a15.942 15.942 0 0 0-2.756 5.567h8.324L3.309 6.259zM31.449 11.826a15.959 15.959 0 0 0-2.756-5.567l-5.567 5.567h8.323zM.551 20.174a15.959 15.959 0 0 0 2.756 5.567l5.567-5.567H.551zM25.741 3.308A15.942 15.942 0 0 0 20.174.552v8.324l5.567-5.567zM6.259 28.692a15.942 15.942 0 0 0 5.567 2.756v-8.323l-5.567 5.567zM11.826.551a15.959 15.959 0 0 0-5.567 2.756l5.567 5.567V.551zM20.174 31.449a15.959 15.959 0 0 0 5.567-2.756l-5.567-5.567v8.323zM23.125 20.174l5.567 5.567a15.942 15.942 0 0 0 2.756-5.567h-8.323z"/>
      <path fill="#d80027" style="fill:var(--color7, #d80027)" d="M31.865 13.913H18.087V.135a16.15 16.15 0 0 0-4.174 0v13.778H.135a16.15 16.15 0 0 0 0 4.174h13.778v13.778a16.15 16.15 0 0 0 4.174 0V18.087h13.778a16.15 16.15 0 0 0 0-4.174z"/>
      <path fill="#d80027" style="fill:var(--color7, #d80027)" d="m20.174 20.174 7.14 7.14c.328-.328.642-.672.941-1.027l-6.113-6.113h-1.968zM11.826 20.174l-7.14 7.14c.328.328.671.642 1.027.941l6.113-6.113v-1.967zM11.826 11.826l-7.14-7.14c-.328.328-.642.671-.941 1.027l6.113 6.113h1.968zM20.174 11.826l7.14-7.14a15.753 15.753 0 0 0-1.027-.94l-6.113 6.113v1.968z"/>
    </symbol>
    <symbol id="icon-burger" viewBox="0 0 47 32">
      <path stroke-linecap="round" stroke-width="2.909" d="M8.537 5.333H45.09M8.537 24.727H45.09M19.668 15.03h25.423"/>
    </symbol>
  </defs>
</svg>
